<svg data-v-d57182f4="" width="72px" height="20px" viewBox="0 0 72 20" version="1.1" xmlns="http://www.w3.org/2000/svg" xmlns:xlink="http://www.w3.org/1999/xlink"><title data-v-d57182f4="">zlott_logo</title> <desc data-v-d57182f4="">Created with Sketch.</desc> <defs data-v-d57182f4=""></defs> <g data-v-d57182f4="" id="Summary-and-Detail-Cards" stroke="none" stroke-width="1" fill="none" fill-rule="evenodd"><g data-v-d57182f4="" id="Email" transform="translate(-610.000000, -58.000000)" fill="#161B17"><path data-v-d57182f4="" d="M624.266787,59.2001792 L618.863271,71.600228 L624.203066,71.600228 L624.203066,76.5959312 L611.076602,76.5959312 L616.454629,64.1958823 L610.770742,64.1958823 L610.770742,59.2001792 L624.266787,59.2001792 Z M626.015898,59.2001792 L631.19002,59.2001792 L631.19002,69.5356772 C631.19002,70.3428102 631.319584,70.8801827 631.578716,71.147811 C631.837848,71.4154393 632.349733,71.5492515 633.114385,71.5492515 L633.382012,71.5492515 L633.382012,76.5959312 L632.005645,76.5959312 C630.119502,76.5959312 628.649693,76.0458146 627.596172,74.9455649 C626.542651,73.8453153 626.015898,72.3181577 626.015898,70.3640464 L626.015898,59.2001792 Z M643.733418,58.7668784 C646.197297,58.7668784 648.31068,59.6632073 650.073628,61.4558921 C651.836576,63.2485768 652.718037,65.3938191 652.718037,67.8916831 C652.718037,70.4320278 651.830204,72.5900141 650.054512,74.3657065 C648.278819,76.141399 646.120833,77.0292319 643.580488,77.0292319 C641.057136,77.0292319 638.903398,76.137151 637.119209,74.3529624 C635.33502,72.5687738 634.442939,70.4150356 634.442939,67.8916831 C634.442939,65.3428422 635.341392,63.184856 637.138325,61.4176597 C638.935258,59.6504633 641.1336,58.7668784 643.733418,58.7668784 Z M643.580488,63.8900229 C642.518471,63.8900229 641.613646,64.2808394 640.865986,65.0624839 C640.118326,65.8441284 639.744502,66.7871854 639.744502,67.8916831 C639.744502,68.9961808 640.12045,69.9392378 640.872358,70.7208823 C641.624266,71.5025269 642.526967,71.8933433 643.580488,71.8933433 C644.651001,71.8933433 645.55795,71.5046509 646.301362,70.7272544 C647.044774,69.9498579 647.416475,69.004677 647.416475,67.8916831 C647.416475,66.7786893 647.044774,65.8335083 646.301362,65.0561118 C645.55795,64.2787154 644.651001,63.8900229 643.580488,63.8900229 Z M663.082188,64.1958823 L663.082188,76.5959312 L657.908066,76.5959312 L657.908066,64.1958823 L653.944639,64.1958823 L653.944639,59.2001792 L667.032871,59.2001792 L667.032871,64.1958823 L663.082188,64.1958823 Z M677.864512,64.1958823 L677.864512,76.5959312 L672.690391,76.5959312 L672.690391,64.1958823 L668.726963,64.1958823 L668.726963,59.2001792 L681.815195,59.2001792 L681.815195,64.1958823 L677.864512,64.1958823 Z" id="zlott_logo"></path></g></g></svg>