<svg xmlns="http://www.w3.org/2000/svg" xmlns:xlink="http://www.w3.org/1999/xlink" data-v-d57182f4="" width="72" height="20" version="1.1"><rect id="backgroundrect" width="100%" height="100%" x="0" y="0" fill="none" stroke="none"/><title data-v-d57182f4="">zlott_logo</title> <desc data-v-d57182f4="">Created with Sketch.</desc> <defs data-v-d57182f4=""/> <g class="currentLayer" style=""><title>Layer 1</title><g data-v-d57182f4="" id="Summary-and-Detail-Cards" stroke="none" stroke-width="1" fill="#ffffff" fill-rule="evenodd" class="" fill-opacity="1"><g data-v-d57182f4="" id="Email" fill="#ffffff" fill-opacity="1"><path data-v-d57182f4="" d="M14.266787000000022,1.200179200000001 L8.863271000000054,13.600228000000001 L14.203066000000035,13.600228000000001 L14.203066000000035,18.595931199999995 L1.0766019999999799,18.595931199999995 L6.454628999999954,6.195882299999994 L0.7707420000000411,6.195882299999994 L0.7707420000000411,1.200179200000001 L14.266787000000022,1.200179200000001 zM16.015897999999993,1.200179200000001 L21.190020000000004,1.200179200000001 L21.190020000000004,11.535677199999995 C21.190020000000004,12.342810200000002 21.319583999999963,12.880182700000006 21.578715999999986,13.147811000000004 C21.837848000000008,13.415439300000003 22.349733000000015,13.549251499999997 23.11438499999997,13.549251499999997 L23.38201200000003,13.549251499999997 L23.38201200000003,18.595931199999995 L22.00564499999996,18.595931199999995 C20.11950200000001,18.595931199999995 18.649692999999957,18.0458146 17.596172000000024,16.945564899999994 C16.542650999999978,15.845315299999996 16.015897999999993,14.3181577 16.015897999999993,12.364046400000007 L16.015897999999993,1.200179200000001 zM33.73341800000003,0.7668784000000031 C36.19729700000005,0.7668784000000031 38.31068000000005,1.6632073000000034 40.073627999999985,3.4558921 C41.836576000000036,5.248576800000002 42.71803699999998,7.393819100000002 42.71803699999998,9.891683099999995 C42.71803699999998,12.4320278 41.83020399999998,14.590014100000005 40.054512000000045,16.3657065 C38.278819,18.141399000000007 36.12083299999995,19.0292319 33.580487999999946,19.0292319 C31.057136000000014,19.0292319 28.90339800000004,18.137151000000003 27.119208999999955,16.352962399999996 C25.335019999999986,14.568773800000002 24.442939000000024,12.415035599999996 24.442939000000024,9.891683099999995 C24.442939000000024,7.342842200000007 25.34139200000004,5.1848560000000035 27.13832500000001,3.4176597000000015 C28.935257999999976,1.6504632999999984 31.1336,0.7668784000000031 33.73341800000003,0.7668784000000031 zM33.580487999999946,5.890022899999998 C32.51847099999998,5.890022899999998 31.613646000000017,6.280839400000005 30.86598600000002,7.062483900000004 C30.118326000000025,7.844128400000002 29.74450200000001,8.787185399999998 29.74450200000001,9.891683099999995 C29.74450200000001,10.996180800000005 30.120450000000005,11.9392378 30.872357999999963,12.7208823 C31.624266000000034,13.502526900000007 32.52696700000001,13.893343299999998 33.580487999999946,13.893343299999998 C34.65100099999995,13.893343299999998 35.557950000000005,13.504650900000001 36.30136200000004,12.727254400000007 C37.04477399999996,11.949857899999998 37.41647499999999,11.004677000000001 37.41647499999999,9.891683099999995 C37.41647499999999,8.778689299999996 37.04477399999996,7.833508300000005 36.30136200000004,7.0561117999999965 C35.557950000000005,6.278715399999996 34.65100099999995,5.890022899999998 33.580487999999946,5.890022899999998 zM53.082187999999974,6.195882299999994 L53.082187999999974,18.595931199999995 L47.90806599999996,18.595931199999995 L47.90806599999996,6.195882299999994 L43.94463900000005,6.195882299999994 L43.94463900000005,1.200179200000001 L57.032871,1.200179200000001 L57.032871,6.195882299999994 L53.082187999999974,6.195882299999994 zM67.86451199999999,6.195882299999994 L67.86451199999999,18.595931199999995 L62.69039099999998,18.595931199999995 L62.69039099999998,6.195882299999994 L58.726962999999955,6.195882299999994 L58.726962999999955,1.200179200000001 L71.81519500000002,1.200179200000001 L71.81519500000002,6.195882299999994 L67.86451199999999,6.195882299999994 z" id="zlott_logo" fill="#ffffff" fill-opacity="1"/></g></g></g></svg>